<?xml version="1.0" encoding="UTF-8"?>
<!DOCTYPE svg PUBLIC "-//W3C//DTD SVG 1.1//EN" "http://www.w3.org/Graphics/SVG/1.1/DTD/svg11.dtd">
<!-- Creator: CorelDRAW 2020 (64-Bit) -->
<svg xmlns="http://www.w3.org/2000/svg" xml:space="preserve" width="90.8718mm" height="32.0844mm" version="1.1" style="shape-rendering:geometricPrecision; text-rendering:geometricPrecision; image-rendering:optimizeQuality; fill-rule:evenodd; clip-rule:evenodd"
viewBox="0 0 191.93 67.77"
 xmlns:xlink="http://www.w3.org/1999/xlink"
 xmlns:xodm="http://www.corel.com/coreldraw/odm/2003">
 <defs>
  <style type="text/css">
   <![CDATA[
    .fil1 {fill:#245E8F}
    .fil0 {fill:#CCCCCC}
   ]]>
  </style>
 </defs>
 <g id="Слой_x0020_1">
  <metadata id="CorelCorpID_0Corel-Layer"/>
  <path class="fil0" d="M67.06 5.81l35.77 0c19.91,-0.09 28.96,15.79 28.43,28.29 -0.69,16.27 -15.05,33.66 -34.43,33.66l-12.11 0 2.39 -14.77c32.09,1.98 27.86,-31.83 11.2,-32.42l-13.67 0 -6.79 47.18 -18.82 0 8.04 -61.95z"/>
  <path class="fil0" d="M54.51 67.77l-21.56 0c-19.91,0.09 -29.23,-15.81 -28.43,-28.29 1.38,-21.23 18.48,-33.66 37.85,-33.66l20.26 0 -1.93 14.76c-1.48,-0.09 -14.92,-0.11 -16.25,-0.06 -25.05,0.96 -22.8,30.97 -6.91,31.54l18.93 0 -1.97 15.71z"/>
  <path class="fil0" d="M183.81 67.77l-21.56 0c-19.91,0.09 -29.23,-15.81 -28.43,-28.29 1.38,-21.23 18.48,-33.66 37.85,-33.66l20.26 0 -1.93 14.76c-1.48,-0.09 -14.92,-0.11 -16.25,-0.06 -25.05,0.96 -22.8,30.97 -6.91,31.54l18.93 0 -1.97 15.71z"/>
  <path class="fil1" d="M62.59 0l35.77 0c19.91,-0.09 28.96,15.79 28.43,28.29 -0.69,16.27 -15.05,33.66 -34.43,33.66l-12.11 0 2.39 -14.77c32.09,1.98 27.86,-31.83 11.2,-32.42l-13.67 0 -6.79 47.18 -18.82 0 8.04 -61.95z"/>
  <path class="fil1" d="M50.04 61.95l-21.56 0c-19.91,0.09 -29.23,-15.81 -28.43,-28.29 1.38,-21.23 18.48,-33.66 37.85,-33.66l20.26 0 -1.93 14.76c-1.48,-0.09 -14.92,-0.11 -16.25,-0.06 -25.05,0.96 -22.8,30.97 -6.91,31.54l18.93 0 -1.97 15.71z"/>
  <path class="fil1" d="M179.34 61.95l-21.56 0c-19.91,0.09 -29.23,-15.81 -28.43,-28.29 1.38,-21.23 18.48,-33.66 37.85,-33.66l20.26 0 -1.93 14.76c-1.48,-0.09 -14.92,-0.11 -16.25,-0.06 -25.05,0.96 -22.8,30.97 -6.91,31.54l18.93 0 -1.97 15.71z"/>
 </g>
</svg>
