<?xml version="1.0" encoding="UTF-8"?>
<!DOCTYPE svg PUBLIC "-//W3C//DTD SVG 1.1//EN" "http://www.w3.org/Graphics/SVG/1.1/DTD/svg11.dtd">
<!-- Creator: CorelDRAW 2020 (64-Bit) -->
<svg xmlns="http://www.w3.org/2000/svg" xml:space="preserve" width="49.9923mm" height="50mm" version="1.1" style="shape-rendering:geometricPrecision; text-rendering:geometricPrecision; image-rendering:optimizeQuality; fill-rule:evenodd; clip-rule:evenodd"
viewBox="0 0 57.55 57.56"
 xmlns:xlink="http://www.w3.org/1999/xlink"
 xmlns:xodm="http://www.corel.com/coreldraw/odm/2003">
 <defs>
  <style type="text/css">
   <![CDATA[
    .fil1 {fill:#FEFEFE}
    .fil0 {fill:#24689F}
    .fil2 {fill:#FEFEFE;fill-rule:nonzero}
   ]]>
  </style>
 </defs>
 <g id="Слой_x0020_1">
  <metadata id="CorelCorpID_0Corel-Layer"/>
  <path class="fil0" d="M5.76 0l46.04 0c1.59,0 2.95,0.57 4.07,1.69 1.12,1.12 1.69,2.49 1.68,4.08l-0.07 46.05c-0,3.17 -2.59,5.75 -5.76,5.75l-45.97 0c-3.17,0 -5.76,-2.59 -5.76,-5.76l0 -46.05c0,-3.17 2.59,-5.76 5.76,-5.76z"/>
  <g id="_2086307299104">
   <path class="fil1" d="M20.11 23.17l9.39 0c5.22,-0.02 7.6,4.14 7.46,7.42 -0.18,4.27 -3.95,8.83 -9.03,8.83l-3.18 0 0.63 -3.87c8.42,0.52 7.31,-8.35 2.94,-8.51l-3.59 0 -1.78 12.38 -4.94 0 2.11 -16.26z"/>
   <path class="fil1" d="M16.82 39.42l-5.66 0c-5.22,0.02 -7.67,-4.15 -7.46,-7.42 0.36,-5.57 4.85,-8.83 9.93,-8.83l5.32 0 -0.51 3.87c-0.39,-0.02 -3.92,-0.03 -4.26,-0.01 -6.57,0.25 -5.98,8.13 -1.81,8.27l4.97 0 -0.52 4.12z"/>
   <path class="fil1" d="M50.74 39.42l-5.66 0c-5.22,0.02 -7.67,-4.15 -7.46,-7.42 0.36,-5.57 4.85,-8.83 9.93,-8.83l5.32 0 -0.51 3.87c-0.39,-0.02 -3.92,-0.03 -4.26,-0.01 -6.57,0.25 -5.98,8.13 -1.81,8.27l4.97 0 -0.52 4.12z"/>
   <path class="fil2" d="M6.39 18.17l-0.59 0 -0.51 3.05 0.59 0 0.22 -1.3 0.27 0 0.91 1.3 0.74 0 -1.1 -1.56 1.48 -1.49 -0.72 0 -1.25 1.26 -0.26 0 0.21 -1.26zm5.29 1.46c-0.23,1.35 -0.07,1.62 1.03,1.62 1.02,0 1.35,-0.27 1.58,-1.62 0.2,-1.17 -0.03,-1.49 -1.06,-1.49 -1.03,0 -1.36,0.33 -1.55,1.49zm0.58 0.07c0.16,-0.99 0.28,-1.06 0.89,-1.06 0.59,0 0.7,0.08 0.53,1.06 -0.16,0.94 -0.28,1.06 -0.89,1.06 -0.61,0 -0.69,-0.1 -0.53,-1.06zm6.06 -1.53l-0.51 3.05 0.59 0 0.43 -2.55 0.53 2.55 0.53 0 1.39 -2.57 -0.43 2.57 0.59 0 0.51 -3.05 -1 0 -1.19 2.26 -0.02 0 -0.45 -2.26 -0.96 0zm7.45 0l-0.51 3.05 0.59 0 0.43 -2.55 1.42 0 -0.43 2.55 0.59 0 0.51 -3.05 -2.59 0zm7.93 2.47l0.1 0.58 0.59 0 -0.52 -3.05 -0.86 0 -1.52 3.05 0.61 0 0.29 -0.58 1.32 0zm-0.06 -0.44l-1.05 0 0.79 -1.58 0.26 1.58zm5.49 -2.03l-0.59 0 -0.51 3.05 0.59 0 0.22 -1.3 1.42 0 -0.22 1.3 0.59 0 0.51 -3.05 -0.59 0 -0.21 1.26 -1.42 0 0.21 -1.26zm7.67 0l-1.71 2.54 -0.01 0c0.08,-0.22 0.12,-0.45 0.14,-0.54l0.34 -2 -0.59 0 -0.51 3.05 0.84 0 1.71 -2.55 0 0c-0.08,0.22 -0.12,0.44 -0.13,0.54l-0.34 2.01 0.59 0 0.51 -3.05 -0.84 0zm6.15 1.97l-0.18 1.07 0.59 0 0.51 -3.05 -1.55 0c-0.66,0 -0.99,0.39 -1.09,0.99 -0.09,0.55 0.11,0.77 0.43,0.91l-0.86 1.15 0.67 0 0.78 -1.07 0.71 0zm0.08 -0.47l-0.85 0c-0.32,0 -0.44,-0.11 -0.37,-0.51 0.06,-0.37 0.21,-0.5 0.55,-0.5l0.84 0 -0.17 1.01z"/>
  </g>
 </g>
</svg>
